<svg id="Capa_1" enable-background="new 0 0 512 512" height="512" viewBox="0 0 512 512" width="512" xmlns="http://www.w3.org/2000/svg"><g><path d="m71.772 462.737-31.023 31.024-22.509-22.509 151.424-151.423c2.951-2.951 2.951-7.734 0-10.686-2.95-2.949-7.734-2.949-10.685 0l-156.766 156.767c-2.951 2.951-2.951 7.734 0 10.686l33.193 33.193c3.562 2.95 7.123 2.95 10.685 0l36.365-36.365c2.951-2.951 2.951-7.734 0-10.686-2.95-2.95-7.734-2.95-10.684-.001z"/><path d="m321.093 159.881c-8.287 0-16.078 3.228-21.94 9.088l-116.883 116.884c-2.951 2.951-2.951 7.734 0 10.686 3.562 2.95 7.123 2.95 10.685 0l61.759-61.758 22.507 22.507-182.159 182.159c-2.951 2.951-2.951 7.734 0 10.686 3.562 2.95 7.123 2.95 10.685 0l216.181-216.181c2.95-2.951 2.95-7.734 0-10.686-2.952-2.951-7.735-2.949-10.686 0l-23.336 23.336-22.507-22.507 44.44-44.44c13.858-13.863 35.415 5.911 23.891 20.922-2.54 3.31-1.916 8.053 1.394 10.594 3.311 2.54 8.052 1.914 10.594-1.394 15.348-20-.047-49.896-24.625-49.896z"/><path d="m444.2 128.506-16.739-16.738 10.747-21.09c2.477-4.861 1.549-10.719-2.309-14.577-3.857-3.857-9.717-4.785-14.577-2.309l-21.09 10.747-16.738-16.739c-3.858-3.856-9.717-4.785-14.577-2.307-4.861 2.477-7.553 7.762-6.698 13.149l3.702 23.379-21.09 10.747c-4.861 2.476-7.554 7.76-6.701 13.149.854 5.389 5.048 9.583 10.437 10.436l23.379 3.703 3.703 23.379c.853 5.389 5.047 9.583 10.436 10.437 5.111.795 9.494-1.439 13.149-6.7l10.747-21.091 23.377 3.702c5.393.851 10.674-1.839 13.151-6.698 2.476-4.862 1.548-10.72-2.309-14.579zm-33.692 2.358c-5.389-.844-10.67 1.841-13.149 6.7l-8.018 15.735-2.762-17.445c-.855-5.385-5.048-9.578-10.436-10.433l-17.442-2.762 15.737-8.019c4.858-2.478 7.55-7.761 6.697-13.149l-2.762-17.442 12.487 12.487c3.856 3.856 9.714 4.786 14.577 2.309l15.736-8.019-8.019 15.737c-2.476 4.861-1.548 10.718 2.309 14.576l12.487 12.487z"/><path d="m459.315 63.372 22.127-22.127c2.95-2.951 2.95-7.734 0-10.686-2.951-2.949-7.734-2.949-10.686 0l-22.127 22.127c-2.95 2.951-3.108 7.901 0 10.686 2.923 2.618 7.96 2.786 10.686 0z"/><path d="m416.948 45.08c3.823.977 7.657-.413 9.253-5.342l8.099-30.225c1.08-4.03-1.311-8.174-5.342-9.253-4.031-1.082-8.174 1.312-9.253 5.342l-8.098 30.225c-1.081 4.03 1.311 8.174 5.341 9.253z"/><path d="m371.112 39.738c1.445 4.677 5.43 6.319 9.253 5.342 4.03-1.079 6.422-5.223 5.342-9.253l-8.098-30.225c-1.079-4.029-5.221-6.424-9.253-5.342-4.03 1.079-6.422 5.223-5.342 9.253z"/><path d="m337.999 63.372c3.562 2.95 7.124 2.95 10.686 0 2.95-2.951 2.95-7.734 0-10.686l-22.127-22.126c-2.951-2.949-7.734-2.949-10.686 0-2.95 2.951-2.95 7.734 0 10.686z"/><path d="m459.315 163.316c-2.951-2.949-7.734-2.949-10.686 0-2.95 2.951-2.95 7.734 0 10.686l22.127 22.127c3.562 2.95 7.124 2.95 10.686 0 2.95-2.951 2.95-7.734 0-10.686z"/><path d="m506.399 134.392-30.225-8.098c-4.03-1.085-8.173 1.311-9.253 5.342-1.08 4.03 1.311 8.174 5.342 9.253l30.225 8.098c3.823.977 6.907-.803 9.253-5.342 1.08-4.03-1.312-8.174-5.342-9.253z"/><path d="m466.921 95.053c.904 3.375 3.957 5.602 7.293 5.602.647 0 1.305-.084 1.961-.26l30.225-8.098c4.03-1.079 6.422-5.223 5.342-9.253-1.079-4.03-5.222-6.426-9.253-5.342l-30.225 8.098c-4.032 1.079-6.423 5.222-5.343 9.253z"/></g></svg>