<?xml version="1.0" encoding="UTF-8"?>
<svg xmlns="http://www.w3.org/2000/svg" xmlns:xlink="http://www.w3.org/1999/xlink" version="1.1" id="Capa_1" x="0px" y="0px" viewBox="0 0 525.995 525.995" style="enable-background:new 0 0 525.995 525.995;" xml:space="preserve" width="512" height="512">
<g>
	<polyline style="fill:none;stroke:#000000;stroke-width:15;stroke-miterlimit:10;" points="219.625,373.924 306.318,109.333 &#10;&#9;&#9;349.081,123.344 338.723,154.959 &#9;"/>
	<polyline style="fill:none;stroke:#000000;stroke-width:15;stroke-miterlimit:10;" points="333.907,169.657 222.338,510.173 &#10;&#9;&#9;179.574,496.161 214.931,388.252 &#9;"/>
	
		<line style="fill:none;stroke:#000000;stroke-width:15;stroke-miterlimit:10;" x1="318.879" y1="215.523" x2="276.116" y2="201.512"/>
	
		<line style="fill:none;stroke:#000000;stroke-width:15;stroke-miterlimit:10;" x1="309.066" y1="245.42" x2="266.303" y2="231.409"/>
	<path style="fill:none;stroke:#000000;stroke-width:15;stroke-miterlimit:10;" d="M294.327,145.171&#10;&#9;&#9;c-72.869-30.309-121.299-75.285-110.71-105.193c11.578-32.703,89.335-35.007,173.676-5.147s143.326,80.577,131.747,113.28&#10;&#9;&#9;c0,0-7.87,21.782-28.791,22.766"/>
	<polygon style="fill:none;stroke:#000000;stroke-width:15;stroke-miterlimit:10;" points="474.465,362.101 510.365,381.735 &#10;&#9;&#9;474.465,401.37 454.831,437.27 435.196,401.37 399.296,381.735 435.196,362.101 454.831,326.201 &#9;"/>
	<polygon style="fill:none;stroke:#000000;stroke-width:15;stroke-miterlimit:10;" points="76.582,80.877 105.693,96.798 &#10;&#9;&#9;76.582,112.719 60.661,141.829 44.74,112.719 15.63,96.798 44.74,80.877 60.661,51.766 &#9;"/>
	<polygon style="fill:none;stroke:#000000;stroke-width:15;stroke-miterlimit:10;" points="460.249,170.877 489.359,186.798 &#10;&#9;&#9;460.249,202.719 444.328,231.829 428.407,202.719 399.296,186.798 428.407,170.877 444.328,141.766 &#9;"/>
	
		<line style="fill:none;stroke:#000000;stroke-width:15;stroke-miterlimit:10;" x1="166.953" y1="296.101" x2="181.953" y2="296.101"/>
	
		<line style="fill:none;stroke:#000000;stroke-width:15;stroke-miterlimit:10;" x1="121.828" y1="162.044" x2="136.828" y2="162.044"/>
	
		<line style="fill:none;stroke:#000000;stroke-width:15;stroke-miterlimit:10;" x1="376.828" y1="270.548" x2="391.828" y2="270.548"/>
</g>















</svg>
