<svg enable-background="new 0 0 512 512" viewBox="0 0 512 512" xmlns="http://www.w3.org/2000/svg"><g id="_x31_5_Brain"><g><path d="m499.629 260.365c0-18.264-7.376-37.481-22.529-51.48 10.035-32.614-1.104-68.891-29.654-90.266 1.305-40.592-34.621-71.952-74.31-66.483-8.079-26.192-32.614-44.506-60.913-44.506-24.285 0-45.459 13.598-56.197 33.517-10.788-19.92-31.912-33.517-56.247-33.517-28.299 0-52.785 18.314-60.913 44.506-39.639-5.469-75.564 25.841-74.26 66.483-28.6 21.375-39.689 57.652-29.704 90.266-28.951 26.794-30.356 72.303-2.158 100.702-15.504 33.417-2.208 73.608 30.808 91.119-.803 40.241 30.507 71.852 68.64 74.009 13.648 18.615 35.324 29.654 58.655 29.654 28.6 0 53.286-16.558 65.178-40.492 11.841 23.934 36.578 40.492 65.128 40.492 23.332 0 45.008-11.039 58.655-29.654 38.083-2.158 69.443-33.718 68.641-74.009 33.166-17.561 46.262-57.853 30.858-91.119 13.096-13.196 20.322-30.657 20.322-49.222zm-251.129 171.701c0 31.56-25.89 57.25-57.652 57.25-19.569 0-37.682-9.784-48.319-26.142-1.405-2.107-3.763-3.362-6.322-3.362-34.922-.1-60.963-30.657-57.351-62.82.351-3.262-1.455-6.423-4.466-7.727-26.392-11.54-40.04-41.897-29.403-69.844 25.841 16.357 59.709 14.451 83.543-5.569 21.224 17.862 52.684 16.508 72.253-2.961 2.96-2.91 2.96-7.677.05-10.637-2.96-2.96-7.727-2.96-10.637-.05-15.002 14.902-39.337 14.902-54.34 0-14.902-14.802-14.902-38.836.05-53.688 2.96-2.96 3.011-7.727.05-10.687-2.91-2.96-7.677-2.96-10.637 0-18.515 18.364-20.422 46.513-6.824 66.834-20.773 17.16-51.229 16.909-71.751-.652-26.392-22.679-25.489-63.271 1.656-84.847 2.559-2.007 3.512-5.469 2.308-8.53-10.988-28.951-.803-62.218 25.89-80.08 2.358-1.606 3.613-4.366 3.262-7.175-3.613-30.155 23.081-58.204 55.845-54.44 22.328 2.559 40.743 19.92 43.904 42.649-24.034 3.713-42.549 24.435-42.549 49.373 0 4.164 3.412 7.526 7.526 7.526 19.468 0 35.324 15.705 35.324 35.022 0 4.165 3.362 7.526 7.526 7.526 4.165 0 7.526-3.362 7.526-7.526 0-24.837-18.264-45.409-42.148-49.323 5.67-28.449 35.424-28.449 34.872-28.249 4.165 0 7.526-3.362 7.526-7.526 0-27.496-17.361-51.029-41.746-60.411 6.423-19.669 24.937-33.317 46.312-33.317 26.844 0 48.72 21.626 48.72 48.219v361.164zm130.105-6.523c-15.755 15.655-41.445 15.655-57.2 0-2.96-2.91-3.011-7.677-.05-10.637 2.91-2.96 7.677-2.96 10.637-.05 9.935 9.884 26.091 9.884 36.026 0 9.885-9.835 9.835-25.69-.05-35.575-2.96-2.91-2.96-7.677-.05-10.637s7.677-2.96 10.637-.05c15.855 15.806 15.855 41.245.05 56.949z"/><path d="m180.025 414.866c-9.927 9.859-26.08 9.859-36.007 0-9.878-9.812-9.895-25.708.042-35.574 2.95-2.93 2.964-7.698.034-10.643-2.928-2.955-7.695-2.964-10.643-.039-15.872 15.77-15.847 41.234-.042 56.938 15.769 15.661 41.449 15.672 57.224 0 2.95-2.93 2.964-7.698.034-10.643-2.924-2.955-7.692-2.965-10.642-.039z"/></g></g><g id="Layer_1"/></svg>