<?xml version="1.0" encoding="UTF-8"?>
<svg id="Layer_1" xmlns="http://www.w3.org/2000/svg" version="1.1" viewBox="0 0 512 512">
  <!-- Generator: Adobe Illustrator 30.0.0, SVG Export Plug-In . SVG Version: 2.1.1 Build 123)  -->
  <defs>
    <style>
      .st0 {
        fill: #ef4027;
      }
    </style>
  </defs>
  <g id="Layer_2">
    <g id="Layer_1-2">
      <g id="_66">
        <path class="st0" d="M505.7,122.5l-92.2-62.7c-6.7-4.5-15.6-3.1-20.7,3.1l-69.2,87.4c-5.2,6.6-4.1,16.1,2.5,21.3s16.1,4.1,21.3-2.5l50.4-63.8c2.9,14.6,4.3,29.4,4.3,44.3,0,125.2-101.9,227-227,227s-90.5-13.8-128.2-39.6l79-27.8c8-2.5,12.4-11,9.9-18.9s-11-12.4-18.9-9.9c-.3.1-.7.2-1,.4l-105.2,37c-2,.7-3.9,1.8-5.4,3.3-4.2,3.8-6,9.7-4.5,15.2l29.3,107.5c1.8,6.6,7.8,11.1,14.6,11.1s2.7-.2,4-.5c8.1-2.2,12.8-10.5,10.6-18.6l-18-66.4c40.3,24.6,86.6,37.5,133.8,37.5,68.3.2,133.8-27,181.9-75.4,48.4-48.1,75.5-113.7,75.4-181.9,0-14.3-1.2-28.6-3.5-42.8l59.8,40.7c7.1,4.4,16.4,2.2,20.8-4.9,4.1-6.6,2.5-15.4-3.8-20.1h0Z"/>
      </g>
    </g>
  </g>
</svg>